<svg xmlns="http://www.w3.org/2000/svg" width="18" height="12" fill="none" viewBox="0 0 18 12"><path fill="#202A38" fill-rule="evenodd" d="M0.562442 1.42904H17.4361C17.7466 1.42904 17.9986 1.17278 17.9986 0.857097C17.9986 0.541365 17.7466 0.285156 17.4361 0.285156H0.562442C0.251953 0.285156 0 0.541413 0 0.857097C0 1.17278 0.252 1.42904 0.562442 1.42904Z" clip-rule="evenodd"/><path fill="#202A38" fill-rule="evenodd" d="M17.4361 5.30859H0.562442C0.251953 5.30859 0 5.56485 0 5.88053C0 6.19622 0.252 6.45248 0.562442 6.45248H17.4361C17.7466 6.45248 17.9986 6.19622 17.9986 5.88053C17.9986 5.56485 17.7466 5.30859 17.4361 5.30859Z" clip-rule="evenodd"/><path fill="#202A38" fill-rule="evenodd" d="M17.4361 10.332H6.18695C5.87646 10.332 5.62451 10.5883 5.62451 10.904C5.62451 11.2197 5.87651 11.4759 6.18695 11.4759H17.4361C17.7466 11.4759 17.9985 11.2197 17.9985 10.904C17.9986 10.5882 17.7466 10.332 17.4361 10.332Z" clip-rule="evenodd"/></svg>