<svg width="319" height="328" viewBox="0 0 319 328" fill="none" xmlns="http://www.w3.org/2000/svg">
<path d="M137.349 38.396C185.449 43.776 206.559 2.076 254.229 7.536C296.769 12.406 326.109 42.716 316.179 83.536C307.359 119.776 265.369 131.146 250.439 165.096C234.609 201.096 222.339 239.886 174.539 252.416C80.6889 277.016 35.0989 161.536 28.7089 95.206C26.2589 69.746 21.9789 8.87599 55.2189 0.995995C88.6689 -6.94401 107.879 35.096 137.349 38.396Z" fill="#38A3A5"/>
<path opacity="0.9" d="M137.349 38.396C185.449 43.776 206.559 2.076 254.229 7.536C296.769 12.406 326.109 42.716 316.179 83.536C307.359 119.776 265.369 131.146 250.439 165.096C234.609 201.096 222.339 239.886 174.539 252.416C80.6889 277.016 35.0989 161.536 28.7089 95.206C26.2589 69.746 21.9789 8.87599 55.2189 0.995995C88.6689 -6.94401 107.879 35.096 137.349 38.396Z" fill="white"/>
<path d="M0.997416 113.655L0 113.727L1.32843 132.169L2.32584 132.097L0.997416 113.655Z" fill="#38A3A5"/>
<path d="M3.00328 141.618L2.00586 141.689L2.5059 148.631L3.50332 148.56L3.00328 141.618Z" fill="#38A3A5"/>
<path d="M234.589 226.455H20.4288C18.045 226.413 15.7613 225.489 14.0182 223.862C12.2751 222.235 11.196 220.021 10.9888 217.645L0.468834 71.5155C0.370988 70.3885 0.510289 69.2535 0.877755 68.1836C1.24522 67.1138 1.8327 66.1327 2.60237 65.3037C3.37204 64.4747 4.30682 63.8161 5.3465 63.3703C6.38618 62.9245 7.50771 62.7014 8.63884 62.7155H222.799C225.181 62.7581 227.463 63.6806 229.206 65.3053C230.949 66.93 232.029 69.142 232.239 71.5155L242.759 217.645C242.857 218.773 242.717 219.908 242.35 220.979C241.983 222.049 241.395 223.031 240.626 223.861C239.856 224.69 238.922 225.35 237.882 225.797C236.842 226.244 235.72 226.468 234.589 226.455Z" fill="#38A3A5"/>
<path d="M235.409 226.455H21.2491C18.8653 226.413 16.5816 225.489 14.8385 223.862C13.0955 222.235 12.0163 220.021 11.8091 217.645L1.28915 71.5155C1.1913 70.3885 1.33059 69.2535 1.69806 68.1836C2.06553 67.1138 2.65301 66.1327 3.42268 65.3037C4.19234 64.4747 5.12712 63.8161 6.1668 63.3703C7.20648 62.9245 8.32801 62.7014 9.45915 62.7155H223.619C226.001 62.7581 228.284 63.6806 230.027 65.3053C231.77 66.93 232.85 69.142 233.059 71.5155L243.579 217.645C243.678 218.773 243.54 219.909 243.173 220.98C242.807 222.051 242.219 223.034 241.45 223.864C240.68 224.694 239.744 225.354 238.704 225.8C237.664 226.246 236.541 226.47 235.409 226.455Z" fill="#38A3A5"/>
<path opacity="0.5" d="M235.409 226.455H21.2491C18.8653 226.413 16.5816 225.489 14.8385 223.862C13.0955 222.235 12.0163 220.021 11.8091 217.645L1.28915 71.5155C1.1913 70.3885 1.33059 69.2535 1.69806 68.1836C2.06553 67.1138 2.65301 66.1327 3.42268 65.3037C4.19234 64.4747 5.12712 63.8161 6.1668 63.3703C7.20648 62.9245 8.32801 62.7014 9.45915 62.7155H223.619C226.001 62.7581 228.284 63.6806 230.027 65.3053C231.77 66.93 232.85 69.142 233.059 71.5155L243.579 217.645C243.678 218.773 243.54 219.909 243.173 220.98C242.807 222.051 242.219 223.034 241.45 223.864C240.68 224.694 239.744 225.354 238.704 225.8C237.664 226.246 236.541 226.47 235.409 226.455Z" fill="white"/>
<path d="M223.939 67.1152H9.7792H9.0592C3.5892 67.5652 4.70919 75.8952 10.2292 75.8952H224.749C230.279 75.8952 230.199 67.5652 224.659 67.1152H223.939Z" fill="#38A3A5"/>
<path d="M15.3586 71.5158C15.3796 71.7736 15.3464 72.033 15.2609 72.2771C15.1755 72.5212 15.0398 72.7448 14.8627 72.9332C14.6855 73.1217 14.4708 73.2709 14.2324 73.3713C13.994 73.4716 13.7372 73.5209 13.4786 73.5158C12.9351 73.5082 12.4137 73.2996 12.0148 72.9303C11.616 72.561 11.368 72.0571 11.3186 71.5158C11.2977 71.2589 11.3307 71.0004 11.4155 70.7569C11.5003 70.5135 11.6351 70.2904 11.8112 70.1021C11.9872 69.9138 12.2007 69.7644 12.4379 69.6634C12.6751 69.5625 12.9308 69.5122 13.1886 69.5158C13.7338 69.521 14.2577 69.7285 14.6587 70.098C15.0596 70.4675 15.3091 70.9728 15.3586 71.5158Z" fill="#FAFAFA"/>
<path d="M22.2287 71.5158C22.2497 71.7736 22.2165 72.033 22.1311 72.2771C22.0456 72.5212 21.91 72.7448 21.7328 72.9332C21.5556 73.1217 21.3409 73.2709 21.1025 73.3713C20.8641 73.4716 20.6073 73.5209 20.3487 73.5158C19.8052 73.5082 19.2838 73.2996 18.8849 72.9303C18.4861 72.561 18.2381 72.0571 18.1887 71.5158C18.1678 71.2589 18.2008 71.0004 18.2856 70.7569C18.3704 70.5135 18.5052 70.2904 18.6813 70.1021C18.8574 69.9138 19.0708 69.7644 19.3081 69.6634C19.5453 69.5625 19.801 69.5122 20.0587 69.5158C20.604 69.521 21.1279 69.7285 21.5288 70.098C21.9298 70.4675 22.1792 70.9728 22.2287 71.5158Z" fill="#FAFAFA"/>
<path d="M29.0888 71.515C29.1097 71.772 29.0767 72.0305 28.9919 72.2739C28.907 72.5173 28.7723 72.7404 28.5962 72.9287C28.4201 73.117 28.2066 73.2664 27.9694 73.3674C27.7322 73.4684 27.4765 73.5187 27.2188 73.515C26.6746 73.5096 26.1519 73.3018 25.7526 72.9321C25.3533 72.5623 25.1059 72.0572 25.0588 71.515C25.0362 71.2577 25.0682 70.9986 25.1524 70.7544C25.2366 70.5103 25.3714 70.2866 25.5477 70.098C25.7241 69.9093 25.9383 69.7599 26.1762 69.6595C26.4141 69.5591 26.6706 69.5098 26.9288 69.515C27.4723 69.5227 27.9937 69.7312 28.3926 70.1005C28.7914 70.4698 29.0394 70.9737 29.0888 71.515Z" fill="#FAFAFA"/>
<path d="M229.729 211.876H24.8785C24.0132 211.862 23.184 211.526 22.552 210.935C21.9201 210.343 21.5303 209.538 21.4585 208.676L12.8085 88.5059C12.77 88.0936 12.8197 87.6777 12.9542 87.286C13.0887 86.8943 13.305 86.5357 13.5888 86.234C13.8725 85.9323 14.2172 85.6944 14.5999 85.5361C14.9826 85.3778 15.3946 85.3028 15.8085 85.3159H220.709C221.573 85.3278 222.402 85.6611 223.034 86.2508C223.667 86.8405 224.057 87.6444 224.129 88.5059L232.789 208.676C232.826 209.094 232.774 209.514 232.635 209.91C232.497 210.306 232.275 210.668 231.985 210.971C231.695 211.274 231.344 211.511 230.955 211.668C230.566 211.824 230.147 211.895 229.729 211.876Z" fill="white"/>
<path d="M143.409 166.095L140.069 119.775L129.969 113.695H102.159L105.939 166.095H143.409Z" fill="white"/>
<path d="M143.409 166.575H105.939C105.815 166.578 105.695 166.533 105.603 166.449C105.512 166.365 105.457 166.249 105.449 166.125L101.679 113.725C101.674 113.659 101.683 113.593 101.706 113.531C101.728 113.469 101.763 113.413 101.809 113.365C101.853 113.316 101.907 113.276 101.967 113.248C102.027 113.221 102.093 113.206 102.159 113.205H129.969C130.057 113.208 130.142 113.232 130.219 113.275L140.319 119.355C140.387 119.394 140.444 119.449 140.486 119.515C140.528 119.581 140.553 119.657 140.559 119.735L143.879 166.055C143.886 166.123 143.878 166.191 143.855 166.255C143.833 166.319 143.797 166.377 143.749 166.425C143.705 166.472 143.653 166.509 143.594 166.535C143.536 166.561 143.473 166.574 143.409 166.575ZM106.409 165.575H142.879L139.599 120.025L129.879 114.175H102.679L106.409 165.575Z" fill="#38A3A5"/>
<path d="M140.069 119.775L129.969 113.695L133.679 121.755L140.069 119.775Z" fill="#EBEBEB"/>
<path d="M133.679 122.235C133.586 122.235 133.496 122.208 133.418 122.158C133.34 122.109 133.278 122.038 133.239 121.955L129.529 113.895C129.485 113.8 129.473 113.695 129.492 113.592C129.512 113.49 129.563 113.397 129.639 113.325C129.718 113.257 129.817 113.216 129.921 113.207C130.025 113.198 130.129 113.222 130.219 113.275L140.319 119.355C140.4 119.404 140.466 119.475 140.509 119.56C140.551 119.645 140.568 119.74 140.559 119.835C140.546 119.927 140.507 120.014 140.447 120.084C140.387 120.155 140.307 120.207 140.219 120.235L133.819 122.235H133.679ZM131.069 114.915L133.939 121.165L138.939 119.635L131.069 114.915Z" fill="#38A3A5"/>
<path d="M117.879 137.295C117.894 137.567 117.853 137.839 117.759 138.094C117.666 138.35 117.521 138.583 117.333 138.781C117.146 138.978 116.921 139.136 116.67 139.243C116.42 139.35 116.151 139.405 115.879 139.405C115.308 139.395 114.761 139.174 114.344 138.784C113.926 138.394 113.668 137.864 113.619 137.295C113.593 137.02 113.626 136.743 113.716 136.483C113.806 136.222 113.95 135.983 114.139 135.783C114.328 135.582 114.558 135.424 114.813 135.319C115.069 135.214 115.343 135.165 115.619 135.175C116.191 135.188 116.738 135.411 117.155 135.802C117.572 136.194 117.83 136.725 117.879 137.295Z" fill="#38A3A5"/>
<path d="M131.579 137.296C131.604 137.57 131.569 137.845 131.479 138.105C131.388 138.365 131.244 138.602 131.055 138.802C130.866 139.001 130.636 139.158 130.382 139.262C130.128 139.366 129.854 139.415 129.579 139.406C129.007 139.396 128.459 139.175 128.04 138.785C127.621 138.396 127.361 137.865 127.309 137.296C127.293 137.023 127.332 136.75 127.426 136.494C127.519 136.237 127.664 136.002 127.851 135.803C128.038 135.605 128.264 135.447 128.515 135.339C128.766 135.231 129.036 135.175 129.309 135.176C129.883 135.184 130.434 135.405 130.854 135.797C131.273 136.189 131.532 136.723 131.579 137.296Z" fill="#38A3A5"/>
<path d="M135.459 151.036C135.337 151.033 135.221 150.986 135.132 150.903C135.043 150.82 134.989 150.707 134.979 150.586C134.729 147.176 129.389 144.406 123.079 144.406C118.889 144.406 115.129 145.656 113.269 147.656C112.887 148.024 112.587 148.47 112.391 148.963C112.194 149.456 112.105 149.985 112.129 150.516C112.133 150.581 112.125 150.647 112.104 150.71C112.083 150.772 112.05 150.83 112.007 150.879C111.92 150.98 111.796 151.041 111.664 151.051C111.531 151.06 111.4 151.016 111.3 150.929C111.2 150.842 111.138 150.718 111.129 150.586C111.099 149.923 111.208 149.261 111.449 148.643C111.69 148.024 112.058 147.463 112.529 146.996C114.529 144.806 118.599 143.436 123.049 143.436C129.979 143.436 135.629 146.546 135.909 150.516C135.913 150.579 135.904 150.642 135.884 150.702C135.864 150.761 135.832 150.817 135.79 150.864C135.748 150.911 135.697 150.95 135.64 150.978C135.584 151.005 135.522 151.022 135.459 151.026V151.036Z" fill="#38A3A5"/>
<path d="M110.049 133.016C109.927 133.013 109.81 132.967 109.719 132.886C109.628 132.794 109.577 132.67 109.577 132.541C109.577 132.411 109.628 132.287 109.719 132.196L111.849 129.906C111.941 129.818 112.062 129.769 112.189 129.769C112.316 129.769 112.438 129.818 112.529 129.906C112.574 129.95 112.609 130.003 112.634 130.062C112.658 130.12 112.67 130.183 112.67 130.246C112.67 130.309 112.658 130.371 112.634 130.43C112.609 130.488 112.574 130.541 112.529 130.586L110.399 132.876C110.353 132.921 110.299 132.957 110.239 132.982C110.178 133.006 110.114 133.017 110.049 133.016Z" fill="#38A3A5"/>
<path d="M134.458 133.016C134.337 133.01 134.221 132.964 134.128 132.886L131.678 130.596C131.632 130.551 131.595 130.497 131.57 130.438C131.545 130.379 131.532 130.315 131.532 130.251C131.532 130.186 131.545 130.123 131.57 130.063C131.595 130.004 131.632 129.95 131.678 129.906C131.77 129.818 131.892 129.769 132.018 129.769C132.145 129.769 132.267 129.818 132.358 129.906L134.808 132.196C134.853 132.24 134.889 132.293 134.913 132.352C134.937 132.41 134.95 132.473 134.95 132.536C134.95 132.599 134.937 132.661 134.913 132.72C134.889 132.778 134.853 132.831 134.808 132.876C134.713 132.965 134.589 133.014 134.458 133.016Z" fill="#38A3A5"/>
<path d="M99.1387 176.445H101.399L104.659 180.785L104.349 176.445H106.629L107.189 184.285H104.879L101.639 179.975L101.949 184.285H99.6687L99.1387 176.445Z" fill="#38A3A5"/>
<path d="M108.209 180.365C108.132 179.833 108.169 179.29 108.317 178.773C108.465 178.256 108.722 177.776 109.069 177.365C109.449 176.992 109.904 176.703 110.404 176.519C110.904 176.334 111.438 176.258 111.969 176.295C113.096 176.234 114.203 176.61 115.059 177.345C115.844 178.126 116.298 179.179 116.329 180.285C116.412 181.049 116.309 181.82 116.029 182.535C115.77 183.111 115.336 183.591 114.789 183.905C114.133 184.257 113.394 184.427 112.649 184.395C111.884 184.42 111.123 184.276 110.419 183.975C109.803 183.679 109.283 183.215 108.919 182.635C108.49 181.953 108.246 181.171 108.209 180.365ZM110.639 180.365C110.63 180.979 110.827 181.578 111.199 182.065C111.355 182.237 111.547 182.373 111.762 182.463C111.976 182.553 112.207 182.595 112.439 182.585C112.661 182.601 112.883 182.563 113.087 182.474C113.29 182.385 113.47 182.248 113.609 182.075C113.896 181.529 113.992 180.902 113.879 180.295C113.883 179.707 113.686 179.135 113.319 178.675C113.159 178.507 112.965 178.374 112.749 178.286C112.534 178.198 112.302 178.157 112.069 178.165C111.852 178.156 111.635 178.198 111.437 178.289C111.239 178.379 111.065 178.515 110.929 178.685C110.636 179.201 110.534 179.802 110.639 180.385V180.365Z" fill="#38A3A5"/>
<path d="M121.028 176.446H124.628C125.222 176.427 125.813 176.525 126.368 176.736C126.808 176.92 127.198 177.204 127.508 177.566C127.823 177.933 128.064 178.357 128.218 178.816C128.38 179.308 128.481 179.819 128.518 180.336C128.595 180.989 128.544 181.651 128.368 182.286C128.231 182.725 127.987 183.123 127.658 183.446C127.384 183.735 127.04 183.949 126.658 184.066C126.193 184.2 125.713 184.274 125.228 184.286H121.638L121.028 176.446ZM123.578 178.226L123.888 182.506H124.478C124.843 182.53 125.209 182.471 125.548 182.336C125.772 182.206 125.937 181.994 126.008 181.746C126.123 181.302 126.15 180.84 126.088 180.386C126.107 179.776 125.921 179.177 125.558 178.686C125.373 178.518 125.154 178.39 124.917 178.311C124.679 178.232 124.428 178.203 124.178 178.226H123.578Z" fill="#38A3A5"/>
<path d="M134.328 182.985H131.578L131.288 184.285H128.818L131.198 176.445H133.878L137.388 184.285H134.848L134.328 182.985ZM133.698 181.295L132.638 178.475L131.978 181.295H133.698Z" fill="#38A3A5"/>
<path d="M136.249 176.445H143.609L143.749 178.385H141.279L141.699 184.285H139.279L138.859 178.385H136.389L136.249 176.445Z" fill="#38A3A5"/>
<path d="M149.249 182.985H146.499L146.209 184.285H143.739L146.119 176.445H148.759L152.259 184.285H149.729L149.249 182.985ZM148.619 181.295L147.549 178.475L146.879 181.295H148.619Z" fill="#38A3A5"/>
<path d="M250.568 84.376C251.458 83.926 252.568 83.376 253.508 82.806C254.448 82.236 255.508 81.686 256.508 81.086C258.458 79.876 260.438 78.686 262.308 77.366C266.064 74.7961 269.585 71.8981 272.828 68.706C273.238 68.326 273.598 67.906 273.988 67.496L274.558 66.886L274.838 66.586L274.978 66.426C274.838 66.696 274.978 66.616 274.978 66.356C275.066 65.9989 275.116 65.6335 275.128 65.266C275.105 63.1397 274.861 61.0215 274.398 58.946C273.508 54.466 272.158 49.846 270.828 45.326L274.708 43.626C277.157 47.9626 279.202 52.5151 280.818 57.226C281.726 59.7718 282.304 62.4234 282.538 65.116C282.6 65.9531 282.573 66.7944 282.458 67.626C282.31 68.8018 281.892 69.9277 281.238 70.916L281.068 71.146L280.938 71.306L280.788 71.496L280.478 71.876L279.858 72.626C279.448 73.116 279.048 73.626 278.608 74.096C275.188 77.8909 271.374 81.3102 267.228 84.296C265.228 85.776 263.108 87.196 260.938 88.486C259.868 89.136 258.778 89.756 257.668 90.366C256.558 90.976 255.478 91.536 254.198 92.136L250.568 84.376Z" fill="#FFB573"/>
<path d="M241.669 319.476C242.418 319.457 243.162 319.357 243.889 319.176C243.926 319.165 243.959 319.144 243.985 319.116C244.012 319.088 244.03 319.054 244.039 319.016C244.044 318.978 244.038 318.939 244.022 318.904C244.006 318.868 243.981 318.838 243.949 318.816C243.659 318.626 241.119 316.986 240.139 317.426C240.03 317.477 239.937 317.555 239.869 317.654C239.8 317.752 239.759 317.867 239.749 317.986C239.71 318.175 239.72 318.37 239.778 318.554C239.835 318.738 239.939 318.904 240.079 319.036C240.538 319.37 241.103 319.527 241.669 319.476ZM243.319 318.896C241.869 319.186 240.769 319.136 240.319 318.746C240.229 318.654 240.163 318.541 240.129 318.417C240.094 318.293 240.09 318.162 240.119 318.036C240.123 317.983 240.14 317.932 240.17 317.888C240.2 317.844 240.241 317.809 240.289 317.786C240.819 317.556 242.289 318.296 243.319 318.896Z" fill="#38A3A5"/>
<path d="M243.879 319.176H243.979C244.008 319.158 244.033 319.133 244.05 319.103C244.068 319.074 244.078 319.04 244.079 319.006C244.079 318.896 244.079 316.486 243.159 315.686C243.049 315.58 242.916 315.5 242.77 315.453C242.625 315.406 242.47 315.394 242.319 315.416C242.161 315.417 242.009 315.472 241.887 315.573C241.765 315.673 241.681 315.811 241.649 315.966C241.459 316.966 242.979 318.716 243.779 319.176C243.812 319.185 243.846 319.185 243.879 319.176ZM242.449 315.786C242.612 315.786 242.768 315.847 242.889 315.956C243.417 316.734 243.689 317.656 243.669 318.596C242.869 317.956 241.919 316.596 242.039 316.026C242.039 315.936 242.109 315.816 242.359 315.786H242.449Z" fill="#38A3A5"/>
<path d="M243.099 59.3662C242.099 64.3662 240.099 74.3662 243.549 77.7162C243.549 77.7162 242.189 82.7162 232.959 82.7162C222.799 82.7162 228.109 77.7162 228.109 77.7162C233.649 76.3962 233.499 72.2862 232.539 68.4162L243.099 59.3662Z" fill="#FFB573"/>
<path d="M226.159 79.7165C224.569 79.9365 225.929 75.8065 226.569 75.3765C228.069 74.3765 247.429 72.9865 247.299 75.3765C247.219 76.3765 246.739 78.3765 245.899 79.0365C245.059 79.6965 240.079 77.6365 226.159 79.7165Z" fill="#263238"/>
<path d="M229.319 78.2965C228.049 78.7265 228.169 74.5665 228.599 74.0665C229.599 72.9065 245.269 68.8865 245.729 71.1565C245.909 72.1565 245.999 74.1565 245.459 74.8665C244.919 75.5765 240.319 74.4065 229.319 78.2965Z" fill="#263238"/>
<path d="M223.488 50.4063C223.425 50.409 223.363 50.3969 223.305 50.3708C223.248 50.3448 223.198 50.3055 223.158 50.2563C222.853 49.8628 222.46 49.5465 222.01 49.3328C221.56 49.1192 221.066 49.0142 220.568 49.0263C220.516 49.0333 220.463 49.0296 220.413 49.0157C220.362 49.0017 220.315 48.9776 220.274 48.9449C220.233 48.9123 220.199 48.8716 220.174 48.8255C220.149 48.7793 220.133 48.7286 220.128 48.6763C220.12 48.5733 220.151 48.471 220.217 48.3908C220.282 48.3107 220.376 48.2589 220.478 48.2463C221.108 48.2142 221.736 48.3347 222.309 48.5976C222.881 48.8605 223.382 49.2581 223.768 49.7563C223.835 49.8375 223.868 49.9417 223.858 50.0466C223.849 50.1514 223.799 50.2483 223.718 50.3163C223.65 50.3651 223.571 50.396 223.488 50.4063Z" fill="#263238"/>
<path d="M221.549 55.2959C221.095 56.8912 220.422 58.4158 219.549 59.8259C219.916 60.0368 220.324 60.1648 220.746 60.2011C221.167 60.2374 221.591 60.181 221.989 60.0359L221.549 55.2959Z" fill="#FF5652"/>
<path d="M222.039 54.0866C222.109 54.7566 221.799 55.3366 221.359 55.3766C220.919 55.4166 220.509 54.9166 220.449 54.2366C220.389 53.5566 220.689 52.9866 221.119 52.9466C221.549 52.9066 221.969 53.4066 222.039 54.0866Z" fill="#263238"/>
<path d="M221.319 52.9662L219.659 52.6562C219.659 52.6562 220.609 53.8362 221.319 52.9662Z" fill="#263238"/>
<path d="M253.579 318.986H245.199L245.859 299.586H254.239L253.579 318.986Z" fill="#FFB573"/>
<path d="M244.539 318.016H253.949C254.111 318.012 254.269 318.068 254.392 318.173C254.516 318.278 254.597 318.425 254.619 318.586L255.689 326.026C255.71 326.214 255.691 326.404 255.633 326.585C255.575 326.765 255.48 326.931 255.353 327.072C255.227 327.213 255.072 327.325 254.899 327.402C254.725 327.478 254.538 327.517 254.349 327.516C251.069 327.466 249.489 327.266 245.349 327.266C242.799 327.266 239.079 327.536 235.569 327.536C232.059 327.536 231.859 324.056 233.329 323.746C239.889 322.326 240.929 320.386 243.139 318.526C243.532 318.199 244.027 318.019 244.539 318.016Z" fill="#263238"/>
<g opacity="0.2">
<path d="M254.239 299.586H245.859L245.519 309.586H253.899L254.239 299.586Z" fill="black"/>
</g>
<path d="M220.249 89.2961C215.121 87.3024 210.098 85.0495 205.199 82.5461C200.138 80.0735 195.318 77.1376 190.799 73.7761C189.591 72.8304 188.449 71.8048 187.379 70.7061C187.099 70.4061 186.819 70.1261 186.549 69.7761C186.232 69.4184 185.938 69.041 185.669 68.6461C184.931 67.5717 184.471 66.3316 184.329 65.0361C184.219 63.808 184.386 62.5708 184.819 61.4161C185.165 60.488 185.64 59.6129 186.229 58.8161C187.195 57.4952 188.335 56.3111 189.619 55.2961C191.885 53.4919 194.331 51.9269 196.919 50.6261C198.159 49.9661 199.419 49.3761 200.699 48.8261C201.979 48.2761 203.239 47.7561 204.609 47.2861L206.379 51.1361C202.019 53.8861 197.499 56.9161 194.179 60.2961C193.436 61.049 192.782 61.8844 192.229 62.7861C191.749 63.5761 191.759 64.1661 191.839 64.1161C191.919 64.0661 191.839 64.1161 191.979 64.2161L192.379 64.6461C192.529 64.8261 192.739 65.0061 192.929 65.1961C193.776 65.9757 194.675 66.6974 195.619 67.3561C197.683 68.8177 199.834 70.1534 202.059 71.3561C204.309 72.6161 206.629 73.8061 208.989 74.9461C213.709 77.2061 218.589 79.3761 223.379 81.3561L220.249 89.2961Z" fill="#FFB573"/>
<path d="M208.879 48.4459L210.259 45.4459L203.939 43.2959C203.939 43.2959 201.939 49.2059 204.309 51.9259C205.299 51.77 206.236 51.3703 207.033 50.7628C207.831 50.1554 208.465 49.3592 208.879 48.4459Z" fill="#FFB573"/>
<path d="M210.228 38.9561L205.198 37.4961L203.938 43.2561L210.228 45.4461V38.9561Z" fill="#FFB573"/>
<path d="M275.229 45.7363L275.959 38.7363L269.479 40.2963C269.479 40.2963 269.379 46.8763 272.809 47.9163L275.229 45.7363Z" fill="#FFB573"/>
<path d="M272.838 33.8066L268.608 35.7766L269.478 40.2466L275.958 38.7166L272.838 33.8066Z" fill="#FFB573"/>
<path d="M244.419 49.5464C244.729 57.8564 245.029 61.3664 241.279 66.0164C235.629 73.0164 225.359 71.5664 222.579 63.5164C220.079 56.2764 219.999 43.9064 227.759 39.8264C229.465 38.9193 231.375 38.4631 233.306 38.5012C235.238 38.5394 237.128 39.0705 238.797 40.0442C240.466 41.0179 241.859 42.4019 242.843 44.065C243.827 45.728 244.369 47.6148 244.419 49.5464Z" fill="#FFB573"/>
<path d="M240.799 66.0067C248.959 62.4767 254.319 55.0067 252.059 43.4267C249.889 32.3167 242.389 31.2167 239.289 33.5167C236.189 35.8167 228.459 32.3867 223.819 36.2867C215.819 43.0567 223.379 50.2867 227.339 54.6567C229.699 59.5167 232.799 69.4567 240.799 66.0067Z" fill="#263238"/>
<path d="M237.409 41.4365C238.405 42.7135 239.752 43.671 241.286 44.1908C242.819 44.7107 244.471 44.7702 246.038 44.3619C247.605 43.9537 249.017 43.0956 250.102 41.8935C251.187 40.6915 251.896 39.1981 252.141 37.5978C252.387 35.9974 252.159 34.3602 251.485 32.8881C250.811 31.416 249.72 30.1736 248.348 29.3142C246.976 28.4547 245.382 28.0159 243.763 28.0519C242.145 28.0878 240.572 28.597 239.239 29.5165C237.416 30.855 236.2 32.8624 235.857 35.0977C235.513 37.3329 236.072 39.6129 237.409 41.4365Z" fill="#38A3A5"/>
<path d="M239.529 34.2962C238.359 27.5962 244.689 22.4362 253.169 24.9262C261.649 27.4162 257.169 34.9262 255.419 40.9262C253.669 46.9262 258.249 52.6462 260.149 48.0762C262.049 43.5062 258.849 42.0762 258.849 42.0762C258.849 42.0762 267.849 44.4062 259.489 54.5562C251.129 64.7062 243.559 53.4962 245.609 46.8862C247.269 41.5762 240.639 40.6262 239.529 34.2962Z" fill="#263238"/>
<path d="M231.058 36.8265C227.188 34.8265 220.638 33.1765 216.908 39.4565C215.148 42.4565 215.828 46.4565 215.828 46.4565L227.218 47.2065L231.058 36.8265Z" fill="#263238"/>
<path d="M214.489 44.4766C214.422 44.4715 214.359 44.4405 214.315 44.3901C214.27 44.3397 214.246 44.2739 214.249 44.2066C214.249 44.0366 214.539 40.0166 216.969 37.4966C222.839 31.3966 229.719 36.4966 231.679 38.1466C231.721 38.1912 231.746 38.2498 231.748 38.3112C231.749 38.3726 231.728 38.4324 231.689 38.4794C231.649 38.5264 231.594 38.5571 231.533 38.5658C231.472 38.5746 231.41 38.5606 231.359 38.5266C229.469 36.9066 222.889 32.0566 217.359 37.8366C215.059 40.2266 214.779 44.1966 214.779 44.2366C214.778 44.2722 214.77 44.3073 214.754 44.3393C214.738 44.3714 214.716 44.3997 214.689 44.4224C214.661 44.4452 214.629 44.4618 214.595 44.4711C214.56 44.4804 214.524 44.4823 214.489 44.4766Z" fill="#263238"/>
<path d="M228.729 54.2962C228.684 55.8695 228.101 57.3799 227.079 58.5762C225.699 60.1962 224.079 59.3962 223.749 57.5762C223.419 55.9662 223.749 53.1762 225.489 52.2062C227.229 51.2362 228.749 52.4762 228.729 54.2962Z" fill="#FFB573"/>
<path d="M226.929 130.416C226.929 130.416 227.469 188.566 232.509 220.966C236.589 247.136 244.119 307.656 244.119 307.656H255.549C255.549 307.656 256.659 249.226 254.549 223.346C249.319 157.846 262.829 145.596 251.929 130.416H226.929Z" fill="#263238"/>
<path opacity="0.1" d="M226.929 130.416C226.929 130.416 227.469 188.566 232.509 220.966C236.589 247.136 244.119 307.656 244.119 307.656H255.549C255.549 307.656 256.659 249.226 254.549 223.346C249.319 157.846 262.829 145.596 251.929 130.416H226.929Z" fill="white"/>
<path opacity="0.3" d="M232.939 156.796C236.939 174.346 233.749 201.986 231.559 214.156C229.239 195.676 228.069 171.726 227.489 154.156C229.559 150.816 231.519 150.596 232.939 156.796Z" fill="black"/>
<path d="M242.559 307.876H257.109L257.868 302.776L242.479 302.256L242.559 307.876Z" fill="#38A3A5"/>
<path d="M246.708 81.296C248.078 78.576 255.438 76.866 259.458 76.876L262.458 90.236C262.458 90.236 254.458 102.126 251.118 100.866C247.188 99.416 243.778 87.166 246.708 81.296Z" fill="#38A3A5"/>
<path opacity="0.4" d="M246.708 81.296C248.078 78.576 255.438 76.866 259.458 76.876L262.458 90.236C262.458 90.236 254.458 102.126 251.118 100.866C247.188 99.416 243.778 87.166 246.708 81.296Z" fill="black"/>
<path d="M238.229 304.606C238.245 304.577 238.254 304.544 238.254 304.511C238.254 304.478 238.245 304.445 238.229 304.416C238.21 304.378 238.18 304.346 238.142 304.327C238.104 304.307 238.061 304.3 238.019 304.306C237.599 304.376 233.899 304.956 233.399 306.016C233.345 306.112 233.317 306.221 233.317 306.331C233.317 306.441 233.345 306.55 233.399 306.646C233.485 306.804 233.608 306.939 233.758 307.038C233.908 307.137 234.08 307.199 234.259 307.216C235.469 307.336 237.259 305.656 238.159 304.636L238.229 304.606ZM233.789 306.146C234.129 305.586 236.049 305.066 237.509 304.796C236.189 306.136 235.029 306.886 234.349 306.796C234.231 306.784 234.118 306.743 234.021 306.677C233.923 306.611 233.843 306.521 233.789 306.416C233.767 306.378 233.755 306.335 233.755 306.291C233.755 306.247 233.767 306.204 233.789 306.166C233.789 306.166 233.779 306.156 233.789 306.146Z" fill="#38A3A5"/>
<path d="M246.958 301.056L239.298 304.466L235.888 297.356L231.428 288.056L230.898 286.976L238.558 283.566L239.148 284.786L243.468 293.796L246.958 301.056Z" fill="#FFB573"/>
<path opacity="0.2" d="M243.469 293.796L235.889 297.356L231.429 288.056L239.149 284.786L243.469 293.796Z" fill="black"/>
<path d="M217.949 130.416C217.949 130.416 193.479 191.296 200.109 219.896C206.109 245.786 232.609 294.816 232.609 294.816L242.879 289.676C242.879 289.676 226.489 230.486 224.719 217.626C221.259 192.626 243.489 157.296 243.489 130.416H217.949Z" fill="#263238"/>
<path opacity="0.1" d="M217.949 130.416C217.949 130.416 193.479 191.296 200.109 219.896C206.109 245.786 232.609 294.816 232.609 294.816L242.879 289.676C242.879 289.676 226.489 230.486 224.719 217.626C221.259 192.626 243.489 157.296 243.489 130.416H217.949Z" fill="white"/>
<path d="M237.939 303.397L245.539 297.867C245.667 297.766 245.828 297.717 245.991 297.728C246.153 297.739 246.306 297.81 246.419 297.927L251.669 303.317C251.797 303.457 251.893 303.623 251.952 303.804C252.011 303.984 252.031 304.175 252.011 304.364C251.991 304.552 251.932 304.735 251.837 304.899C251.742 305.063 251.613 305.206 251.459 305.317C248.769 307.197 247.379 307.977 244.039 310.407C241.979 311.907 237.879 315.217 235.039 317.287C232.199 319.357 230.039 316.657 231.039 315.547C235.519 310.547 236.459 307.447 237.159 304.637C237.268 304.145 237.543 303.707 237.939 303.397Z" fill="#263238"/>
<path d="M231.948 296.986L245.178 290.936L243.488 285.546L229.318 292.006L231.948 296.986Z" fill="#38A3A5"/>
<path d="M224.439 80.6562C223.349 77.8162 213.789 74.6562 208.989 73.6562L206.879 89.3763C206.879 89.3763 214.719 100.636 218.149 99.7063C222.209 98.6063 226.799 86.7463 224.439 80.6562Z" fill="#38A3A5"/>
<path opacity="0.4" d="M224.439 80.6562C223.349 77.8162 213.789 74.6562 208.989 73.6562L206.879 89.3763C206.879 89.3763 214.719 100.636 218.149 99.7063C222.209 98.6063 226.799 86.7463 224.439 80.6562Z" fill="black"/>
<path d="M213.949 79.8663C213.949 79.8663 209.949 81.2663 217.949 130.416H251.949C251.379 116.576 251.359 108.036 257.949 79.6163C253.185 78.6333 248.356 77.9983 243.499 77.7163C238.359 77.3459 233.199 77.3459 228.059 77.7163C221.469 78.2963 213.949 79.8663 213.949 79.8663Z" fill="#38A3A5"/>
<path opacity="0.4" d="M213.949 79.8663C213.949 79.8663 209.949 81.2663 217.949 130.416H251.949C251.379 116.576 251.359 108.036 257.949 79.6163C253.185 78.6333 248.356 77.9983 243.499 77.7163C238.359 77.3459 233.199 77.3459 228.059 77.7163C221.469 78.2963 213.949 79.8663 213.949 79.8663Z" fill="black"/>
<path d="M252.479 128.427L254.009 131.427C254.129 131.667 253.849 131.907 253.459 131.907H217.779C217.469 131.907 217.219 131.757 217.199 131.557L216.889 128.557C216.889 128.347 217.139 128.167 217.469 128.167H251.879C251.993 128.149 252.11 128.163 252.216 128.209C252.323 128.256 252.414 128.331 252.479 128.427Z" fill="#38A3A5"/>
<path opacity="0.3" d="M252.479 128.427L254.009 131.427C254.129 131.667 253.849 131.907 253.459 131.907H217.779C217.469 131.907 217.219 131.757 217.199 131.557L216.889 128.557C216.889 128.347 217.139 128.167 217.469 128.167H251.879C251.993 128.149 252.11 128.163 252.216 128.209C252.323 128.256 252.414 128.331 252.479 128.427Z" fill="white"/>
<path d="M247.878 132.296H248.798C248.988 132.296 249.128 132.196 249.108 132.086L248.678 128.086C248.678 127.966 248.508 127.876 248.328 127.876H247.398C247.218 127.876 247.078 127.966 247.088 128.086L247.518 132.086C247.508 132.176 247.668 132.296 247.878 132.296Z" fill="#263238"/>
<path d="M225.489 132.296H226.409C226.589 132.296 226.729 132.196 226.719 132.086L226.289 128.086C226.289 127.966 226.119 127.876 225.929 127.876H225.009C224.819 127.876 224.689 127.966 224.699 128.086L225.129 132.086C225.139 132.176 225.299 132.296 225.489 132.296Z" fill="#263238"/>
</svg>
